Fly_normalized_Motion_pl04
version=1
nRows=19
nColumns=43
inDegrees=yes
endheader
time		pelvis_tilt		pelvis_list		pelvis_rotation		pelvis_tx		pelvis_ty		pelvis_tz		hip_flexion_r		hip_adduction_r		hip_rotation_r		knee_angle_r		ankle_angle_r		subtalar_angle_r		mtp_angle_r		hip_flexion_l		hip_adduction_l		hip_rotation_l		knee_angle_l		ankle_angle_l		subtalar_angle_l		mtp_angle_l		lumbar_extension		lumbar_bending		lumbar_rotation		neck_flexion		neck_lateral_bending		neck_rotation		arm_flex_r		arm_add_r		arm_rot_r		elbow_flex_r		pro_sup_r		wrist_flex_r		wrist_dev_r		hand_finger_flex_r		arm_flex_l		arm_add_l		arm_rot_l		elbow_flex_l		pro_sup_l		wrist_flex_l		wrist_dev_l		hand_finger_flex_l		
0.522500		1.937159		-18.574021		90.063552		0.046685		1.896026		1.453658		45.465287		5.670246		5.566231		-102.646439		-5.693800		7.100683		2.792413		53.714892		-9.198144		0.081085		-106.063642		-5.168633		-8.448384		32.593992		-31.510114		-0.739467		-0.878004		10.303841		-1.161364		3.327296		92.964040		-21.548381		23.176034		74.871846		125.105560		1.166759		1.766683		-12.184462		97.188234		-22.076621		26.276009		74.822909		118.968547		-8.544769		4.143117		16.884260		
0.526919		1.941673		-18.518315		90.105248		0.046582		1.896313		1.446071		45.504240		5.756182		5.499994		-102.160499		-4.670832		5.832572		2.647297		54.049714		-9.277309		0.004815		-105.469513		-4.768246		-8.950452		31.883801		-31.515091		-0.743149		-1.017131		10.406096		-0.985970		3.391750		92.658115		-21.178307		23.034034		74.488658		125.288582		1.191572		1.855012		-12.321632		96.856594		-21.916946		26.034953		74.425394		118.808313		-8.687574		4.279270		16.679831		
0.531338		2.156394		-18.462129		90.396663		0.046313		1.896516		1.438444		45.632380		5.869044		5.081983		-101.559309		-4.570521		3.687363		0.799029		54.533469		-9.308933		0.223681		-104.878908		-4.540347		-9.616179		27.893920		-31.529317		-0.446810		-1.229967		10.446423		-0.928203		3.502238		92.198129		-20.672252		22.600681		74.125229		126.275403		1.606391		1.651120		-12.860481		96.392772		-21.861986		25.748557		74.135103		118.450538		-8.634561		4.491022		15.854266		
0.535758		2.194801		-18.376640		90.491770		0.045918		1.896615		1.431026		45.845617		5.812361		4.912319		-100.991159		-4.838453		2.020895		-0.666873		54.908189		-9.322539		0.230233		-104.195813		-4.370183		-9.904359		25.115341		-31.592288		-0.347395		-1.342474		10.524565		-0.903380		3.572425		91.797252		-20.233104		22.268997		73.699260		126.763183		1.863600		1.631112		-13.331294		95.917137		-21.703867		25.433271		73.739438		118.232716		-8.547501		4.686812		15.245108		
0.540177		2.186473		-18.286474		90.467094		0.045724		1.896696		1.423566		46.078369		5.765882		4.897947		-100.353006		-5.162985		0.838478		-0.902957		55.218669		-9.365370		0.189699		-103.389672		-4.516567		-10.181024		24.890011		-31.712345		-0.367154		-1.351301		10.636102		-0.850102		3.590027		91.410801		-20.076705		22.208691		73.441997		126.743666		1.802350		1.702889		-13.430901		95.454982		-21.640649		25.283732		73.476782		118.186479		-8.551500		4.784609		15.181517		
0.544596		2.282782		-18.245144		90.488397		0.045563		1.896442		1.416279		46.449030		5.765418		4.690593		-99.728130		-5.824218		-0.974154		-1.251275		55.659362		-9.435681		0.272779		-102.622373		-4.751359		-10.418198		24.526499		-31.766313		-0.283120		-1.317700		10.708275		-0.824784		3.620473		90.947531		-19.812543		21.992856		73.074046		126.792962		1.709447		1.746524		-13.558181		94.869792		-21.497101		24.969974		73.139173		118.118371		-8.524529		4.980956		15.107840		
0.549015		2.374024		-18.227611		90.531304		0.045434		1.895979		1.409021		46.825654		5.772061		4.523036		-99.083723		-6.003569		-2.186497		-1.407337		56.137035		-9.469892		0.416683		-101.846612		-4.890026		-10.070759		24.416927		-31.802483		-0.188143		-1.259421		10.815114		-0.825917		3.607648		90.429689		-19.559469		21.765696		72.688854		126.744528		1.617143		1.771057		-13.646448		94.234584		-21.327276		24.691002		72.815357		118.089473		-8.499784		5.186158		15.098888		
0.553434		2.520740		-18.243174		90.581732		0.045335		1.895222		1.401867		47.280171		5.825102		4.291511		-98.467698		-6.087309		-3.343746		-1.560192		56.684404		-9.506763		0.644460		-101.091778		-4.921583		-9.445932		24.419859		-31.807348		-0.044895		-1.155711		10.893648		-0.832782		3.592099		89.894509		-19.343803		21.569393		72.303418		126.664158		1.550570		1.752913		-13.738661		93.563418		-21.180548		24.427501		72.494137		118.144807		-8.391709		5.399745		15.137123		
0.557854		2.662854		-18.234028		90.620913		0.045171		1.894356		1.394828		47.734136		5.899034		4.120826		-97.855072		-5.981968		-4.074759		-1.652727		57.201490		-9.513415		0.860756		-100.313933		-4.858004		-8.735004		24.540304		-31.866707		0.099523		-1.019434		10.996880		-0.845758		3.578092		89.406187		-19.228864		21.487160		71.922071		126.575482		1.535690		1.732829		-13.805702		92.937151		-21.099540		24.307169		72.170865		118.263197		-8.235070		5.567875		15.209392		
0.562273		2.752260		-18.357991		90.647500		0.045122		1.892977		1.387766		48.311973		5.981577		3.964109		-97.246975		-5.586729		-5.136729		-1.797099		57.880886		-9.515635		1.104196		-99.576737		-4.605754		-6.981310		25.224430		-31.747148		0.180830		-0.921986		10.995229		-0.883770		3.503750		88.690821		-19.023990		21.192705		71.548552		126.298019		1.350480		1.634000		-13.970704		92.068731		-20.934927		23.915754		71.931831		118.479626		-8.007421		5.731896		15.408172		
0.566692		2.785118		-18.306934		90.587655		0.044904		1.891759		1.380889		48.773456		5.991986		3.883054		-96.660978		-5.114059		-5.710225		-1.849106		58.330775		-9.491575		1.146912		-98.758726		-4.584898		-6.138315		25.605143		-31.892854		0.215848		-0.762426		11.248321		-0.987848		3.502907		88.193593		-18.922244		21.135226		71.139944		126.195941		1.277718		1.631998		-14.045100		91.452054		-20.868689		23.848824		71.548384		118.596776		-7.853088		5.830114		15.515669		
0.571111		2.861914		-18.322671		90.564278		0.044723		1.890279		1.373896		49.313223		6.059517		3.805232		-95.984581		-4.990927		-6.346511		-2.066700		58.829944		-9.475150		1.288459		-97.934424		-4.279910		-4.820367		26.429290		-31.937654		0.286796		-0.625399		11.335645		-1.039413		3.468543		87.584758		-18.836662		21.101229		70.726091		126.072395		1.157980		1.545254		-14.153732		90.657050		-20.833567		23.664458		71.300229		118.763116		-7.560386		5.880440		15.706436		
0.575530		2.956107		-18.311214		90.529957		0.044478		1.888623		1.366866		49.855520		6.093535		3.677910		-95.292656		-4.974491		-6.885725		-2.306120		59.279215		-9.485895		1.402686		-97.095041		-3.975784		-3.596531		27.271935		-32.014613		0.380637		-0.470744		11.392064		-1.072135		3.442512		86.953364		-18.795272		21.130360		70.351355		125.971886		1.062420		1.447995		-14.249325		89.824317		-20.849174		23.514355		71.088755		118.924525		-7.254442		5.911430		15.891998		
0.579949		2.987314		-18.367434		90.494545		0.044195		1.886714		1.359818		50.420727		6.111531		3.591730		-94.527027		-4.816492		-7.721789		-2.671820		59.797394		-9.442735		1.537548		-96.242789		-3.778102		-1.749342		28.614212		-32.029227		0.455924		-0.373039		11.547165		-1.325004		3.349041		86.236036		-18.671341		21.083159		69.966314		125.898474		0.804519		1.316381		-14.464729		88.726854		-20.786897		22.957447		71.013017		118.980786		-6.973315		5.863859		15.999694		
0.584369		3.016351		-18.197057		90.419956		0.043853		1.885060		1.352669		50.767146		6.059273		3.527100		-93.745430		-4.746077		-7.774694		-2.705180		59.999290		-9.375147		1.494620		-95.297797		-3.806600		-1.568197		28.736506		-32.320784		0.480249		-0.205734		11.692867		-1.323624		3.353151		85.643444		-18.793130		21.292817		69.675262		125.915853		0.866523		1.346479		-14.463257		87.986028		-20.931872		23.153575		70.811330		119.004689		-6.868509		5.890553		16.031099		
0.588788		2.992647		-18.252194		90.285678		0.043633		1.882842		1.345606		51.344368		6.067664		3.526086		-92.932614		-4.691996		-8.243399		-2.951416		60.431553		-9.359191		1.502931		-94.349222		-3.826799		-0.173452		29.850165		-32.363787		0.475887		-0.079946		11.890206		-1.570796		3.293316		84.939485		-18.795879		21.505131		69.386906		126.063173		0.641439		1.354877		-14.762898		86.798879		-20.983386		22.661383		70.859119		119.049628		-6.776994		5.831233		16.019622		
0.593207		3.007019		-18.149774		90.184996		0.043452		1.880753		1.338466		51.741920		6.058962		3.479706		-92.074401		-4.631170		-8.288934		-2.989582		60.656917		-9.336476		1.445536		-93.338290		-3.931918		0.150888		30.151946		-32.588960		0.470746		0.063409		12.057436		-1.600936		3.274143		84.257914		-18.900990		21.769153		69.128393		126.213710		0.599591		1.449734		-14.892765		85.876432		-21.153234		22.680525		70.774363		119.113733		-6.741303		5.844540		16.022421		
0.597626		3.016148		-18.129773		90.043466		0.043443		1.878335		1.331311		52.230157		6.084595		3.439365		-91.205997		-4.565365		-8.375047		-3.056195		60.945087		-9.383352		1.389472		-92.299591		-4.116614		0.736960		30.781733		-32.719976		0.446189		0.191583		12.255969		-1.715049		3.244754		83.492146		-18.952615		22.077610		68.921853		126.533694		0.404427		1.607989		-15.207736		84.746909		-21.326551		22.426078		70.827068		119.248809		-6.769802		5.842401		15.995286		
0.602045		3.094270		-18.158953		89.929958		0.043468		1.875825		1.324114		52.717166		6.163481		3.369957		-90.201016		-4.449160		-8.223967		-3.028688		61.272595		-9.503158		1.309359		-91.200562		-4.511831		0.894856		31.625196		-32.821024		0.501493		0.307046		12.410713		-1.859751		3.268411		82.620123		-18.935140		22.319247		68.804232		127.161226		0.120021		1.783015		-15.754352		83.438616		-21.546283		21.926634		71.112403		119.675937		-6.773621		5.863526		15.949649		
